HIERARCHY
ROOT Hips
{
	OFFSET 0.000000 100.481300 0.000000
	CHANNELS 6 Xposition Yposition Zposition Xrotation Yrotation Zrotation
	JOINT Spine
	{
		OFFSET -0.279200 12.230698 -2.892100
		CHANNELS 3 Xrotation Yrotation Zrotation
		JOINT Spine1
		{
			OFFSET -0.325700 14.269203 -3.374200
			CHANNELS 3 Xrotation Yrotation Zrotation
			JOINT Spine2
			{
				OFFSET -0.372300 16.307602 -0.352600
				CHANNELS 3 Xrotation Yrotation Zrotation
				JOINT Neck
				{
					OFFSET -0.418800 17.814194 8.416900
					CHANNELS 3 Xrotation Yrotation Zrotation
					JOINT Head
					{
						OFFSET 0.000000 7.031097 3.806800
						CHANNELS 3 Xrotation Yrotation Zrotation
						JOINT HeadTop_End
						{
							OFFSET 0.000000 24.646606 12.978600
							CHANNELS 3 Xrotation Yrotation Zrotation
							End Site
							{
								OFFSET 0.000000 27.854965 0.000000
							}
						}
					}
				}
				JOINT LeftShoulder
				{
					OFFSET 16.952999 14.495407 -7.737500
					CHANNELS 3 Xrotation Yrotation Zrotation
					JOINT LeftArm
					{
						OFFSET 9.308998 -2.777710 0.208600
						CHANNELS 3 Xrotation Yrotation Zrotation
						JOINT LeftForeArm
						{
							OFFSET 29.972298 0.000000 0.000000
							CHANNELS 3 Xrotation Yrotation Zrotation
							JOINT LeftHand
							{
								OFFSET 26.026505 0.000000 0.000000
								CHANNELS 3 Xrotation Yrotation Zrotation
								JOINT LeftHandThumb1
								{
									OFFSET 12.240501 -7.147949 9.207150
									CHANNELS 3 Xrotation Yrotation Zrotation
									JOINT LeftHandThumb2
									{
										OFFSET 4.138618 -2.389435 2.389433
										CHANNELS 3 Xrotation Yrotation Zrotation
										JOINT LeftHandThumb3
										{
											OFFSET 2.726913 -1.574387 1.574386
											CHANNELS 3 Xrotation Yrotation Zrotation
											JOINT LeftHandThumb4
											{
												OFFSET 3.941010 -2.275345 2.275342
												CHANNELS 3 Xrotation Yrotation Zrotation
												End Site
												{
													OFFSET -0.005798 5.087799 0.009903
												}
											}
										}
									}
								}
								JOINT LeftHandIndex1
								{
									OFFSET 24.424698 -1.985611 5.953459
									CHANNELS 3 Xrotation Yrotation Zrotation
									JOINT LeftHandIndex2
									{
										OFFSET 6.426697 0.000000 0.000000
										CHANNELS 3 Xrotation Yrotation Zrotation
										JOINT LeftHandIndex3
										{
											OFFSET 5.337898 0.000000 0.000000
											CHANNELS 3 Xrotation Yrotation Zrotation
											JOINT LeftHandIndex4
											{
												OFFSET 4.409401 0.000000 0.000000
												CHANNELS 3 Xrotation Yrotation Zrotation
												End Site
												{
													OFFSET 0.000000 4.409363 0.014373
												}
											}
										}
									}
								}
								JOINT LeftHandMiddle1
								{
									OFFSET 23.810104 0.000000 0.000000
									CHANNELS 3 Xrotation Yrotation Zrotation
									JOINT LeftHandMiddle2
									{
										OFFSET 7.176498 0.000000 0.000000
										CHANNELS 3 Xrotation Yrotation Zrotation
										JOINT LeftHandMiddle3
										{
											OFFSET 6.774902 0.000000 0.000000
											CHANNELS 3 Xrotation Yrotation Zrotation
											JOINT LeftHandMiddle4
											{
												OFFSET 5.403328 0.000000 0.000000
												CHANNELS 3 Xrotation Yrotation Zrotation
												End Site
												{
													OFFSET -0.027702 5.403244 0.017414
												}
											}
										}
									}
								}
								JOINT LeftHandRing1
								{
									OFFSET 22.908401 -0.839279 -6.020567
									CHANNELS 3 Xrotation Yrotation Zrotation
									JOINT LeftHandRing2
									{
										OFFSET 6.337502 0.000000 0.000000
										CHANNELS 3 Xrotation Yrotation Zrotation
										JOINT LeftHandRing3
										{
											OFFSET 5.779297 0.000000 0.000000
											CHANNELS 3 Xrotation Yrotation Zrotation
											JOINT LeftHandRing4
											{
												OFFSET 4.965698 0.000000 0.000000
												CHANNELS 3 Xrotation Yrotation Zrotation
												End Site
												{
													OFFSET 0.000000 4.965668 0.016186
												}
											}
										}
									}
								}
								JOINT LeftHandPinky1
								{
									OFFSET 20.037003 -1.530319 -10.950146
									CHANNELS 3 Xrotation Yrotation Zrotation
									JOINT LeftHandPinky2
									{
										OFFSET 5.254700 0.000000 0.000000
										CHANNELS 3 Xrotation Yrotation Zrotation
										JOINT LeftHandPinky3
										{
											OFFSET 4.810204 0.000000 0.000000
											CHANNELS 3 Xrotation Yrotation Zrotation
											JOINT LeftHandPinky4
											{
												OFFSET 3.647202 0.000000 0.000000
												CHANNELS 3 Xrotation Yrotation Zrotation
												End Site
												{
													OFFSET 0.000000 3.647186 0.011889
												}
											}
										}
									}
								}
							}
						}
					}
				}
				JOINT RightShoulder
				{
					OFFSET -15.141001 14.495407 -7.737500
					CHANNELS 3 Xrotation Yrotation Zrotation
					JOINT RightArm
					{
						OFFSET -9.308998 -2.777710 0.208500
						CHANNELS 3 Xrotation Yrotation Zrotation
						JOINT RightForeArm
						{
							OFFSET -29.972300 0.000000 0.000000
							CHANNELS 3 Xrotation Yrotation Zrotation
							JOINT RightHand
							{
								OFFSET -26.026505 0.000000 0.000000
								CHANNELS 3 Xrotation Yrotation Zrotation
								JOINT RightHandThumb1
								{
									OFFSET -12.240601 -7.148026 9.207092
									CHANNELS 3 Xrotation Yrotation Zrotation
									JOINT RightHandThumb2
									{
										OFFSET -4.138618 -2.389435 2.389433
										CHANNELS 3 Xrotation Yrotation Zrotation
										JOINT RightHandThumb3
										{
											OFFSET -2.726974 -1.574417 1.574421
											CHANNELS 3 Xrotation Yrotation Zrotation
											JOINT RightHandThumb4
											{
												OFFSET -3.941010 -2.275345 2.275343
												CHANNELS 3 Xrotation Yrotation Zrotation
												End Site
												{
													OFFSET 0.005814 5.087799 0.009927
												}
											}
										}
									}
								}
								JOINT RightHandIndex1
								{
									OFFSET -24.424698 -1.985657 5.953444
									CHANNELS 3 Xrotation Yrotation Zrotation
									JOINT RightHandIndex2
									{
										OFFSET -6.426697 0.000000 0.000000
										CHANNELS 3 Xrotation Yrotation Zrotation
										JOINT RightHandIndex3
										{
											OFFSET -5.337898 0.000000 0.000000
											CHANNELS 3 Xrotation Yrotation Zrotation
											JOINT RightHandIndex4
											{
												OFFSET -4.409401 0.000000 0.000000
												CHANNELS 3 Xrotation Yrotation Zrotation
												End Site
												{
													OFFSET 0.000000 4.409363 0.014408
												}
											}
										}
									}
								}
								JOINT RightHandMiddle1
								{
									OFFSET -23.810097 0.000000 0.000000
									CHANNELS 3 Xrotation Yrotation Zrotation
									JOINT RightHandMiddle2
									{
										OFFSET -7.176498 0.000000 0.000000
										CHANNELS 3 Xrotation Yrotation Zrotation
										JOINT RightHandMiddle3
										{
											OFFSET -6.774902 0.000000 0.000000
											CHANNELS 3 Xrotation Yrotation Zrotation
											JOINT RightHandMiddle4
											{
												OFFSET -5.403328 0.000000 0.000000
												CHANNELS 3 Xrotation Yrotation Zrotation
												End Site
												{
													OFFSET 0.027702 5.403244 0.017457
												}
											}
										}
									}
								}
								JOINT RightHandRing1
								{
									OFFSET -22.908302 -0.839325 -6.020576
									CHANNELS 3 Xrotation Yrotation Zrotation
									JOINT RightHandRing2
									{
										OFFSET -6.337502 0.000000 0.000000
										CHANNELS 3 Xrotation Yrotation Zrotation
										JOINT RightHandRing3
										{
											OFFSET -5.779297 0.000000 0.000000
											CHANNELS 3 Xrotation Yrotation Zrotation
											JOINT RightHandRing4
											{
												OFFSET -4.965698 0.000000 0.000000
												CHANNELS 3 Xrotation Yrotation Zrotation
												End Site
												{
													OFFSET 0.000000 4.965668 0.016226
												}
											}
										}
									}
								}
								JOINT RightHandPinky1
								{
									OFFSET -20.037003 -1.530334 -10.950259
									CHANNELS 3 Xrotation Yrotation Zrotation
									JOINT RightHandPinky2
									{
										OFFSET -5.254700 0.000000 0.000000
										CHANNELS 3 Xrotation Yrotation Zrotation
										JOINT RightHandPinky3
										{
											OFFSET -4.810204 0.000000 0.000000
											CHANNELS 3 Xrotation Yrotation Zrotation
											JOINT RightHandPinky4
											{
												OFFSET -3.647202 0.000000 0.000000
												CHANNELS 3 Xrotation Yrotation Zrotation
												End Site
												{
													OFFSET 0.000000 3.647186 0.011917
												}
											}
										}
									}
								}
							}
						}
					}
				}
			}
		}
	}
	JOINT LeftUpLeg
	{
		OFFSET 15.427100 -6.655098 0.678600
		CHANNELS 3 Xrotation Yrotation Zrotation
		JOINT LeftLeg
		{
			OFFSET 4.081073 -39.591068 13.024000
			CHANNELS 3 Xrotation Yrotation Zrotation
			JOINT LeftFoot
			{
				OFFSET -4.081074 -37.707932 -15.979700
				CHANNELS 3 Xrotation Yrotation Zrotation
				JOINT LeftToeBase
				{
					OFFSET 5.346399 -15.068900 20.645000
					CHANNELS 3 Xrotation Yrotation Zrotation
					JOINT LeftToe_End
					{
						OFFSET 2.754700 0.931300 11.300900
						CHANNELS 3 Xrotation Yrotation Zrotation
						End Site
						{
							OFFSET 0.000000 11.669021 0.000000
						}
					}
				}
			}
		}
	}
	JOINT RightUpLeg
	{
		OFFSET -15.569500 -6.655098 0.678600
		CHANNELS 3 Xrotation Yrotation Zrotation
		JOINT RightLeg
		{
			OFFSET -4.081825 -39.591045 13.023800
			CHANNELS 3 Xrotation Yrotation Zrotation
			JOINT RightFoot
			{
				OFFSET 4.081824 -37.707954 -15.979600
				CHANNELS 3 Xrotation Yrotation Zrotation
				JOINT RightToeBase
				{
					OFFSET -5.346400 -15.068900 20.645000
					CHANNELS 3 Xrotation Yrotation Zrotation
					JOINT RightToe_End
					{
						OFFSET -2.754700 0.931300 11.300900
						CHANNELS 3 Xrotation Yrotation Zrotation
						End Site
						{
							OFFSET 0.000000 11.669021 0.000000
						}
					}
				}
			}
		}
	}
}
MOTION
Frames: 5
Frame Time: 0.033333
-0.199111 6.526558 2.889534 -82.949048 -1.664050 -2.065596 4.588449 0.962890 0.656984 9.207537 1.597057 -0.465605 9.207536 1.597058 -0.465604 -18.959915 -34.664361 -11.652935 21.780993 -35.853534 3.502349 0.000001 0.000000 0.000002 0.392442 -2.312711 -5.944301 63.389558 21.982144 -33.830299 -0.437110 -99.149765 -0.280127 35.337343 7.547858 4.044586 -9.791197 -2.237006 14.215394 -1.904830 8.410477 4.090310 0.000008 0.000007 0.000003 0.000000 -0.000001 -0.000001 -1.165509 -1.918211 -12.810476 0.055298 0.717626 -13.890174 -0.000000 0.000000 -0.000001 -0.000000 0.000000 -0.000000 1.239000 7.383691 -14.769511 -0.089366 -0.400465 -11.081938 -0.000002 -0.000010 0.000000 -0.000001 -0.000003 0.000004 0.735057 8.717499 -13.838377 -0.318348 -2.251241 -20.718783 0.000000 -0.000003 0.000001 -0.000000 -0.000001 -0.000001 0.474789 13.075447 -4.256240 -0.787356 -5.930426 -27.217168 -0.000001 -0.000003 0.000003 -0.000000 -0.000000 0.000003 16.302569 1.336936 -3.570808 45.476301 -8.212161 46.122072 1.074695 88.029807 -1.219295 37.971074 -0.306694 -2.666058 -13.555000 9.513932 -12.547976 2.561849 -3.158517 -1.343564 0.000005 -0.000011 -0.000013 0.000001 0.000000 0.000001 -1.194015 0.939361 6.682826 0.118006 -1.137648 17.363504 0.000003 -0.000001 0.000000 0.000000 0.000001 -0.000001 -1.213740 -1.063687 8.626501 -0.127412 0.420438 15.030685 0.000001 0.000014 0.000002 -0.000000 -0.000001 0.000002 2.088951 -12.037498 7.854069 -0.404217 2.691501 20.891298 0.000001 -0.000001 -0.000000 0.000001 -0.000000 0.000002 2.925230 -15.252895 2.266736 -1.708158 8.388909 33.833123 0.000001 -0.000017 -0.000003 -0.000000 0.000000 0.000002 -20.008617 6.128593 11.386973 8.726592 -12.114006 -5.617486 3.972584 21.569512 -9.554437 0.999008 -1.565929 0.864642 0.000000 0.000000 -0.000000 -17.760607 -8.856532 -8.659077 0.886768 14.200297 6.764323 13.622181 -28.376306 18.584178 5.774377 -3.171069 2.106015 0.000000 -0.000001 -0.000001 
-0.213013 6.524811 2.889008 -82.925525 -1.695447 -2.063634 4.589713 0.976987 0.659388 9.210835 1.622678 -0.472021 9.210831 1.622678 -0.472022 -18.854918 -34.742321 -11.467468 21.456039 -35.867348 3.266154 -0.000000 -0.000000 -0.000000 0.393542 -2.299267 -5.947289 63.264798 21.994135 -33.816290 -0.439562 -99.100335 -0.282715 35.506359 7.363407 3.913483 -9.869322 -2.237774 14.217600 -1.984050 8.506744 4.127660 0.000009 0.000008 0.000001 0.000001 0.000001 0.000000 -1.194166 -2.021459 -12.882194 0.055253 0.717565 -13.886964 0.000000 0.000000 -0.000000 -0.000000 -0.000001 0.000001 1.253023 7.414977 -14.847735 -0.089351 -0.400265 -11.079236 -0.000002 -0.000006 0.000000 -0.000001 -0.000001 0.000001 0.735286 8.747286 -13.779223 -0.320466 -2.255423 -20.772880 -0.000001 -0.000002 -0.000002 -0.000001 0.000001 -0.000002 0.441278 13.066297 -4.036950 -0.786854 -5.930031 -27.212080 -0.000000 0.000001 0.000000 -0.000001 0.000001 0.000001 16.302581 1.333868 -3.541845 45.543360 -8.217921 46.135810 1.096608 88.072885 -1.241401 37.954958 -0.346401 -2.754237 -13.499063 9.503656 -12.476254 2.370215 -3.388590 -1.464151 0.000007 -0.000009 -0.000012 -0.000002 -0.000001 -0.000002 -1.207037 0.915807 6.839065 0.118444 -1.138388 17.385097 0.000001 -0.000000 0.000003 0.000000 0.000001 -0.000001 -1.209435 -1.113097 8.693713 -0.127434 0.420579 15.033491 -0.000001 0.000014 0.000002 0.000000 -0.000002 -0.000001 2.097595 -12.045920 7.909662 -0.400834 2.684193 20.819598 0.000001 0.000001 -0.000001 -0.000001 -0.000000 -0.000001 2.937284 -15.221295 2.319137 -1.705169 8.386422 33.811752 0.000001 -0.000017 -0.000003 0.000002 0.000002 0.000001 -19.985448 6.119711 11.392286 8.731383 -12.109700 -5.615291 3.770845 21.497563 -9.520345 1.000894 -1.571339 0.867628 -0.000000 -0.000000 -0.000000 -17.750772 -8.947724 -8.651113 0.830650 14.205071 6.765418 13.516570 -28.342321 18.607831 5.752500 -3.169031 2.102703 0.000000 0.000000 -0.000002 
-0.229785 6.521332 2.894623 -82.922158 -1.732266 -2.061157 4.606408 0.963543 0.654472 9.243648 1.596078 -0.476579 9.243625 1.596079 -0.476579 -18.773557 -34.804872 -11.158490 20.935127 -35.813031 2.798459 0.000001 -0.000000 0.000000 0.399433 -2.201217 -5.957607 63.209658 21.981760 -33.850479 -0.442045 -99.039444 -0.285120 35.658857 7.240864 4.024157 -9.876663 -2.417824 14.058637 -1.998591 8.533530 4.128382 0.000010 0.000008 0.000004 0.000001 -0.000000 0.000001 -1.167506 -2.075059 -12.609152 0.054862 0.717085 -13.856894 -0.000001 -0.000001 -0.000001 -0.000000 -0.000001 -0.000002 1.233861 7.364551 -14.707209 -0.089194 -0.398513 -11.057747 -0.000001 -0.000009 0.000001 -0.000001 0.000001 -0.000001 0.703871 8.732360 -13.487885 -0.321036 -2.256550 -20.787452 -0.000000 0.000000 -0.000003 0.000001 0.000001 -0.000003 0.419309 13.192219 -3.918446 -0.782165 -5.925987 -27.165710 -0.000001 0.000001 0.000002 -0.000000 -0.000000 0.000002 16.299509 1.377770 -3.349520 45.485542 -8.347709 45.874464 1.131425 88.123183 -1.275590 37.819294 -0.378625 -2.844944 -13.174171 9.513840 -12.264469 2.266505 -3.512647 -1.529600 0.000007 -0.000010 -0.000016 0.000001 -0.000000 -0.000002 -1.203739 0.942232 6.775390 0.118517 -1.138546 17.388265 0.000002 -0.000001 0.000001 0.000000 -0.000001 0.000001 -1.213507 -1.065503 8.627180 -0.127297 0.419514 15.015317 -0.000000 0.000015 0.000001 -0.000001 -0.000001 0.000000 2.090226 -12.078374 7.841786 -0.400422 2.683283 20.810755 -0.000002 0.000000 -0.000003 -0.000000 -0.000001 -0.000001 2.939463 -15.164379 2.307669 -1.700384 8.382435 33.777574 0.000001 -0.000019 -0.000004 0.000001 0.000002 -0.000000 -19.929654 6.130104 11.398558 8.727889 -12.112496 -5.616168 3.485589 21.528167 -9.445827 0.953201 -1.606055 0.881242 -0.000000 0.000001 0.000000 -17.747248 -9.267731 -8.665893 0.784467 14.201801 6.756336 13.349071 -27.963180 18.623738 5.686298 -3.176388 2.099154 -0.000001 0.000000 -0.000001 
-0.239246 6.519669 2.897102 -82.910785 -1.757504 -2.058648 4.618972 0.943776 0.657807 9.267971 1.557289 -0.463939 9.267964 1.557289 -0.463939 -18.807909 -34.818190 -11.005073 20.771457 -35.771985 2.552731 0.000000 0.000000 -0.000001 0.408175 -2.052856 -6.008233 63.152394 21.921192 -33.805349 -0.445225 -98.945474 -0.288421 35.692270 7.192739 4.147420 -9.719118 -2.264161 14.111529 -1.987767 8.532931 4.114801 0.000009 0.000006 0.000000 -0.000001 -0.000001 -0.000000 -1.175772 -2.168723 -12.533808 0.054778 0.717016 -13.850550 0.000001 0.000001 0.000001 -0.000000 0.000001 -0.000000 1.201598 7.300929 -14.545062 -0.089172 -0.398228 -11.053914 -0.000002 -0.000008 0.000001 0.000000 -0.000003 0.000001 0.697307 8.727635 -13.425866 -0.320433 -2.255366 -20.771966 -0.000000 -0.000003 0.000002 -0.000000 -0.000001 0.000002 0.437977 13.348755 -4.067331 -0.774033 -5.918940 -27.085341 -0.000000 0.000000 0.000003 0.000000 0.000001 0.000001 16.294779 1.471392 -3.136883 45.415075 -8.593220 45.619103 1.176458 88.175550 -1.320280 37.727018 -0.374016 -2.886364 -12.984949 9.558372 -12.133505 2.191693 -3.602041 -1.576838 0.000007 -0.000008 -0.000013 -0.000000 -0.000001 0.000002 -1.199877 0.910260 6.775253 0.118078 -1.137780 17.367349 0.000003 -0.000001 0.000002 -0.000000 -0.000002 -0.000000 -1.216496 -1.037491 8.603019 -0.127100 0.418006 14.989308 0.000001 0.000015 0.000001 0.000000 -0.000001 0.000000 2.089223 -12.052002 7.848450 -0.400309 2.683020 20.808433 -0.000001 0.000000 0.000000 -0.000001 0.000000 -0.000001 2.947722 -15.103777 2.327870 -1.718131 8.397273 33.904134 0.000001 -0.000017 -0.000007 -0.000001 0.000001 -0.000001 -19.862593 6.111818 11.401025 8.700564 -12.112706 -5.614679 3.201670 21.606339 -9.438466 0.884955 -1.709410 0.926263 0.000000 0.000001 0.000000 -17.880938 -9.859940 -8.712353 0.823194 14.198178 6.754971 13.311382 -27.106999 18.392677 5.604697 -3.172048 2.088888 0.000000 -0.000000 -0.000001 
-0.241498 6.520470 2.895073 -82.902104 -1.750513 -2.047838 4.618000 0.942021 0.664438 9.265794 1.553466 -0.452907 9.265800 1.553466 -0.452907 -18.834419 -34.855132 -10.881184 20.737484 -35.768079 2.398150 0.000000 -0.000000 0.000002 0.411861 -1.996277 -6.034992 63.059592 21.868990 -33.735008 -0.447491 -98.877377 -0.290854 35.545551 7.168789 4.039964 -9.717232 -2.331969 14.114303 -1.994055 8.551196 4.110610 0.000010 0.000004 0.000004 0.000001 -0.000000 0.000000 -1.178190 -2.244071 -12.463271 0.054608 0.716813 -13.837588 0.000000 -0.000001 0.000002 -0.000000 -0.000000 -0.000001 1.292367 7.417102 -14.399796 -0.088978 -0.396019 -11.026681 0.000000 -0.000008 -0.000001 -0.000001 0.000001 0.000001 0.674749 8.665689 -13.307138 -0.319855 -2.254231 -20.757216 -0.000000 -0.000004 -0.000001 -0.000001 0.000001 -0.000002 0.431156 13.321219 -4.020154 -0.769665 -5.915163 -27.042109 0.000000 0.000002 -0.000000 0.000001 0.000000 0.000000 16.293777 1.496819 -3.083002 45.422612 -8.703854 45.602277 1.201617 88.218921 -1.345509 37.748085 -0.366829 -2.878191 -12.806010 9.462618 -12.114645 2.149942 -3.651455 -1.603474 0.000007 -0.000009 -0.000012 0.000001 0.000000 0.000000 -1.196313 0.886493 6.768349 0.119003 -1.139392 17.412165 0.000003 0.000000 0.000001 -0.000000 0.000000 -0.000001 -1.214039 -1.055098 8.604712 -0.127042 0.417538 14.980782 0.000001 0.000014 0.000001 0.000001 0.000001 0.000001 2.085573 -11.991314 7.854624 -0.401136 2.684852 20.826022 -0.000001 -0.000001 -0.000002 0.000001 0.000001 -0.000001 2.983276 -15.063284 2.506464 -1.699621 8.381805 33.772116 0.000001 -0.000016 -0.000005 -0.000000 0.000000 0.000003 -19.848567 6.054324 11.379152 8.716683 -12.100396 -5.609871 3.100115 21.583218 -9.400160 0.823746 -1.760176 0.946410 -0.000000 0.000001 0.000000 -17.956426 -10.161939 -8.753827 0.857635 14.203632 6.761032 13.258602 -26.581898 18.219485 5.545949 -3.186171 2.089091 0.000001 0.000001 -0.000000 
